<svg width="256" height="256" viewBox="0 0 256 256" fill="none" xmlns="http://www.w3.org/2000/svg">
<g clip-path="url(#clip0)">
<rect width="256" height="256" rx="48" fill="black"/>
<path d="M27.4062 150.344V152.312C27.4062 159.75 28.4688 166.594 30.5938 172.844C32.7188 179.094 35.8125 184.531 39.875 189.156C43.875 193.781 48.8125 197.406 54.6875 200.031C60.5625 202.656 67.2188 203.969 74.6562 203.969C82.0312 203.969 88.625 202.656 94.4375 200.031C100.312 197.406 105.25 193.781 109.25 189.156C113.25 184.531 116.312 179.094 118.438 172.844C120.562 166.594 121.625 159.75 121.625 152.312V150.344C121.625 142.969 120.562 136.156 118.438 129.906C116.312 123.594 113.25 118.125 109.25 113.5C105.188 108.875 100.219 105.25 94.3438 102.625C88.5312 100 81.9062 98.6875 74.4688 98.6875C67.0312 98.6875 60.4062 100 54.5938 102.625C48.7812 105.25 43.875 108.875 39.875 113.5C35.8125 118.125 32.7188 123.594 30.5938 129.906C28.4688 136.156 27.4062 142.969 27.4062 150.344ZM49.8125 152.312V150.344C49.8125 145.906 50.2812 141.656 51.2188 137.594C52.2188 133.531 53.7188 129.969 55.7188 126.906C57.7812 123.844 60.3438 121.406 63.4062 119.594C66.5312 117.781 70.2188 116.875 74.4688 116.875C78.7812 116.875 82.4688 117.781 85.5312 119.594C88.6562 121.406 91.2188 123.844 93.2188 126.906C95.2188 129.969 96.7188 133.531 97.7188 137.594C98.7188 141.656 99.2188 145.906 99.2188 150.344V152.312C99.2188 156.875 98.7188 161.188 97.7188 165.25C96.7812 169.312 95.3125 172.875 93.3125 175.938C91.3125 179 88.75 181.438 85.625 183.25C82.5 185 78.8438 185.875 74.6562 185.875C70.3438 185.875 66.625 185 63.5 183.25C60.375 181.438 57.7812 179 55.7188 175.938C53.7188 172.875 52.2188 169.312 51.2188 165.25C50.2812 161.188 49.8125 156.875 49.8125 152.312ZM224.806 149.969V117.625C224.806 108.875 223.775 101.156 221.713 94.4688C219.65 87.7188 216.744 82.0312 212.994 77.4062C209.119 72.8438 204.431 69.4062 198.931 67.0938C193.494 64.7188 187.306 63.5312 180.369 63.5312C173.494 63.5312 167.306 64.7188 161.806 67.0938C156.369 69.4062 151.744 72.8438 147.931 77.4062C144.119 82.0312 141.181 87.7188 139.119 94.4688C137.119 101.156 136.119 108.875 136.119 117.625V149.969C136.119 158.719 137.119 166.469 139.119 173.219C141.181 179.906 144.15 185.531 148.025 190.094C151.838 194.656 156.494 198.125 161.994 200.5C167.494 202.812 173.681 203.969 180.556 203.969C187.494 203.969 193.681 202.812 199.119 200.5C204.619 198.125 209.244 194.656 212.994 190.094C216.806 185.531 219.713 179.906 221.713 173.219C223.775 166.469 224.806 158.719 224.806 149.969ZM158.619 142C158.619 140.188 158.619 138.656 158.619 137.406C158.619 136.156 158.619 134.344 158.619 131.969V113.594C158.619 107.969 159.119 103.094 160.119 98.9688C161.119 94.7812 162.65 91.375 164.713 88.75C166.463 86.4375 168.65 84.6875 171.275 83.5C173.9 82.3125 176.931 81.7188 180.369 81.7188C183.619 81.7188 186.494 82.2188 188.994 83.2188C191.494 84.2188 193.619 85.7188 195.369 87.7188C197.369 89.9688 198.9 92.875 199.963 96.4375C201.088 100 201.775 104.219 202.025 109.094L158.619 142ZM202.213 153.719C202.213 159.469 201.713 164.469 200.713 168.719C199.713 172.969 198.15 176.406 196.025 179.031C194.213 181.281 192.025 183 189.463 184.188C186.9 185.312 183.931 185.875 180.556 185.875C177.119 185.875 174.088 185.281 171.463 184.094C168.9 182.906 166.744 181.125 164.994 178.75C163.244 176.562 161.838 173.812 160.775 170.5C159.775 167.188 159.119 163.375 158.806 159.062L202.213 126.344C202.213 128.156 202.213 129.906 202.213 131.594C202.213 133.219 202.213 134.844 202.213 136.469V153.719Z" fill="white"/>
</g>
<defs>
<clipPath id="clip0">
<rect width="256" height="256" fill="white"/>
</clipPath>
</defs>
</svg>
